<svg role="img" className="svg-get-in-contact fill-navy" xmlns="http://www.w3.org/2000/svg" viewBox="0 0 1490 240" preserveAspectRatio="xMidYMin meet"><path d="M930 240h-47a140 140 0 0 1-3-19 219 219 0 0 1-1-22 185 185 0 0 1 2-31 98 98 0 0 1 8-25 81 81 0 0 1 11-18 51 51 0 0 1 13-11 64 64 0 0 1 16-7 69 69 0 0 1 17-2 66 66 0 0 1 17 2 62 62 0 0 1 16 7 50 50 0 0 1 13 12 79 79 0 0 1 11 18 102 102 0 0 1 7 24 192 192 0 0 1 2 31 206 206 0 0 1-1 22 132 132 0 0 1-4 19h-46a54 54 0 0 0 4-12c2-8 3-18 3-31s-1-23-3-31a59 59 0 0 0-3-10 27 27 0 0 0-4-7 17 17 0 0 0-5-4 14 14 0 0 0-7-2 16 16 0 0 0-7 2 18 18 0 0 0-5 4 28 28 0 0 0-5 7 57 57 0 0 0-3 11c-2 8-3 18-3 29a165 165 0 0 0 1 25 59 59 0 0 0 5 17l1 2Zm414 0h-41l-1-209 43 1v91a40 40 0 0 1 9-9 43 43 0 0 1 12-7 52 52 0 0 1 16-2 60 60 0 0 1 12 1 47 47 0 0 1 10 4 44 44 0 0 1 9 6 48 48 0 0 1 8 8 52 52 0 0 1 6 10 77 77 0 0 1 4 13c3 10 4 21 4 34v59h-42v-49a159 159 0 0 0-2-22 53 53 0 0 0-3-15 19 19 0 0 0-8-8 22 22 0 0 0-11-3 20 20 0 0 0-7 2 19 19 0 0 0-6 3 24 24 0 0 0-5 7 45 45 0 0 0-4 9 84 84 0 0 0-2 19l-1 57Zm-637 0h-44a2103 2103 0 0 0 0-55 102 102 0 0 0-1-19 38 38 0 0 0-5-13 21 21 0 0 0-7-7 19 19 0 0 0-10-3 19 19 0 0 0-6 1 17 17 0 0 0-5 3 20 20 0 0 0-5 6 43 43 0 0 0-3 8c-2 5-3 13-3 21v58h-44l-1-131h39l3 17a41 41 0 0 1 12-12 44 44 0 0 1 13-7 63 63 0 0 1 17-2 55 55 0 0 1 11 1 44 44 0 0 1 10 4 40 40 0 0 1 9 5 45 45 0 0 1 7 8 50 50 0 0 1 6 10 76 76 0 0 1 4 13c2 9 3 20 3 33v61Zm-154 0h-44V110l44-1v131Zm738 0h-45c2-5 3-11 3-19l43 2a99 99 0 0 1-1 17Zm-76 0h-46a129 129 0 0 1-4-20 199 199 0 0 1-1-23 168 168 0 0 1 2-29 100 100 0 0 1 6-23 81 81 0 0 1 11-18 54 54 0 0 1 13-12 61 61 0 0 1 15-7 63 63 0 0 1 17-3h2a62 62 0 0 1 14 2 64 64 0 0 1 15 5 57 57 0 0 1 13 10 66 66 0 0 1 10 13 63 63 0 0 1 7 17 88 88 0 0 1 3 21l-42 3a63 63 0 0 0-2-14 34 34 0 0 0-4-10 21 21 0 0 0-6-6 12 12 0 0 0-7-3 16 16 0 0 0-7 2 19 19 0 0 0-6 5 30 30 0 0 0-5 7 58 58 0 0 0-3 11c-2 8-2 18-2 30a174 174 0 0 0 2 26l4 16h1Zm-61 0h-49a44 44 0 0 0 2-7 97 97 0 0 0 3-21V110l43-1Zm-85 0h-47a170 170 0 0 1-1-22V109h44v101a116 116 0 0 0 1 18 47 47 0 0 0 3 12Zm-235 0h-43v-5l1-79h-20v-40h20l1-57h42l-1 57h37l-1 40h-36l-2 71a36 36 0 0 0 2 13Zm-446 0h-43v-5l1-79h-20v-40h20l1-57h42l-1 57h37l-1 40h-37l-1 71a36 36 0 0 0 2 13Zm-63 0h-42a29 29 0 0 0 2-9l40 1v8Zm-75 0h-43a138 138 0 0 1-4-19 218 218 0 0 1-1-23 182 182 0 0 1 3-31 98 98 0 0 1 7-24 82 82 0 0 1 10-18 50 50 0 0 1 14-11 60 60 0 0 1 31-9 60 60 0 0 1 18 3 49 49 0 0 1 15 8 62 62 0 0 1 12 13 73 73 0 0 1 9 16 100 100 0 0 1 5 19 125 125 0 0 1 2 21l-1 16a86 86 0 0 1-1 11h-80a90 90 0 0 0 1 15 48 48 0 0 0 3 12v1Zm17-96a15 15 0 0 0-6 2 19 19 0 0 0-6 4 27 27 0 0 0-5 7 45 45 0 0 0-3 10 68 68 0 0 0-1 17h42a74 74 0 0 0 0-17 41 41 0 0 0-3-10 24 24 0 0 0-4-7 18 18 0 0 0-7-4 19 19 0 0 0-7-2Zm-77 96h-44a24 24 0 0 0 2-3 46 46 0 0 0 4-11 74 74 0 0 0 2-14 137 137 0 0 0 0-23h-25l-1-44h63l1 4a288 288 0 0 1 3 46 209 209 0 0 1-1 22 189 189 0 0 1-4 21v2Zm-72 0H65a122 122 0 0 1-5-22 368 368 0 0 1-3-99 262 262 0 0 1 5-31 129 129 0 0 1 9-27 91 91 0 0 1 13-21 54 54 0 0 1 9-8 51 51 0 0 1 10-6 55 55 0 0 1 12-3 69 69 0 0 1 12-2 76 76 0 0 1 23 4 48 48 0 0 1 17 9 67 67 0 0 1 12 14 64 64 0 0 1 8 17 127 127 0 0 1 4 18 135 135 0 0 1 1 19l-42 4a85 85 0 0 0-2-19 36 36 0 0 0-7-15 17 17 0 0 0-6-5 18 18 0 0 0-8-1 16 16 0 0 0-9 2 23 23 0 0 0-7 9 61 61 0 0 0-4 12 112 112 0 0 0-4 17 389 389 0 0 0-2 44l1 32a242 242 0 0 0 3 25 111 111 0 0 0 4 18 44 44 0 0 0 6 12 28 28 0 0 0 3 3ZM530 90a24 24 0 0 1-9-2 28 28 0 0 1-8-6 25 25 0 0 1-6-9 28 28 0 0 1-2-10 29 29 0 0 1 2-10 27 27 0 0 1 6-9 25 25 0 0 1 7-5 20 20 0 0 1 9-2h1a22 22 0 0 1 9 2 24 24 0 0 1 8 5 26 26 0 0 1 6 9 28 28 0 0 1 1 10 30 30 0 0 1-1 11 25 25 0 0 1-6 8 25 25 0 0 1-8 6 23 23 0 0 1-9 2Z"/></svg>